<?xml version="1.0" encoding="UTF-8" standalone="no"?>
<!-- Created with Inkscape (http://www.inkscape.org/) -->

<svg
   width="98.216141mm"
   height="11.917467mm"
   viewBox="0 0 98.216141 11.917467"
   version="1.1"
   id="svg5444"
   xml:space="preserve"
   inkscape:version="1.2.1 (9c6d41e410, 2022-07-14)"
   sodipodi:docname="titles.svg"
   xmlns:inkscape="http://www.inkscape.org/namespaces/inkscape"
   xmlns:sodipodi="http://sodipodi.sourceforge.net/DTD/sodipodi-0.dtd"
   xmlns="http://www.w3.org/2000/svg"
   xmlns:svg="http://www.w3.org/2000/svg"><sodipodi:namedview
     id="namedview5446"
     pagecolor="#ffffff"
     bordercolor="#666666"
     borderopacity="1.0"
     inkscape:showpageshadow="2"
     inkscape:pageopacity="0.0"
     inkscape:pagecheckerboard="0"
     inkscape:deskcolor="#d1d1d1"
     inkscape:document-units="mm"
     showgrid="false"
     inkscape:zoom="0.76167929"
     inkscape:cx="-311.15458"
     inkscape:cy="123.41152"
     inkscape:window-width="2560"
     inkscape:window-height="1009"
     inkscape:window-x="-8"
     inkscape:window-y="-8"
     inkscape:window-maximized="1"
     inkscape:current-layer="layer1" /><defs
     id="defs5441" /><g
     inkscape:label="Layer 1"
     inkscape:groupmode="layer"
     id="layer1"
     transform="translate(-64.918608,-138.14806)"><g
       aria-label=": a space odyssey"
       id="text5982"
       style="font-size:10.5833px;line-height:1.25;font-family:'Gill Sans MT';-inkscape-font-specification:'Gill Sans MT';letter-spacing:-0.529167px;fill:#fcfa1a;stroke-width:0.264583"><path
         d="m 90.474849,143.67317 q 0,-0.37723 0.268717,-0.64595 0.273884,-0.27388 0.651121,-0.27388 0.382404,0 0.651121,0.27388 0.273884,0.26872 0.273884,0.64595 0,0.37724 -0.273884,0.65113 -0.268717,0.26871 -0.651121,0.26871 -0.377237,0 -0.651121,-0.26871 -0.268717,-0.27389 -0.268717,-0.65113 z m 0,3.13159 q 0,-0.37724 0.268717,-0.64596 0.273884,-0.27388 0.651121,-0.27388 0.382404,0 0.651121,0.27388 0.273884,0.26872 0.273884,0.64596 0,0.3824 -0.273884,0.65112 -0.268717,0.26871 -0.651121,0.26871 -0.377237,0 -0.651121,-0.26871 -0.268717,-0.26872 -0.268717,-0.65112 z"
         style="font-weight:bold;-inkscape-font-specification:'Gill Sans MT Bold'"
         id="path245" /><path
         d="m 99.276347,146.42752 v 0.85266 q -0.764809,0.44441 -1.4366,0.44441 -0.723468,0 -0.857826,-0.54776 -0.800982,0.54776 -1.607132,0.54776 -0.568439,0 -0.966346,-0.35656 -0.397908,-0.36174 -0.397908,-0.83716 0,-0.63562 0.408243,-1.02319 0.41341,-0.39274 2.490796,-1.00769 0.05168,-0.81648 -0.847491,-0.81648 -0.976681,0 -1.798334,0.81648 v -1.25056 q 0.961179,-0.59428 2.113559,-0.59428 2.067051,0 2.067051,1.48311 v 2.22208 q 0,0.34106 0.253214,0.34106 0.191202,0 0.578774,-0.27388 z m -2.366773,0.0207 v -1.17822 q -0.769976,0.26872 -1.059363,0.48576 -0.28422,0.21187 -0.28422,0.5426 0,0.21187 0.144694,0.3669 0.144693,0.14986 0.351398,0.14986 0.434081,0 0.847491,-0.3669 z"
         style="font-weight:bold;-inkscape-font-specification:'Gill Sans MT Bold'"
         id="path247" /><path
         d="m 105.1478,143.01689 v 1.09037 q -0.8785,-0.53744 -1.6278,-0.53744 -0.55294,0 -0.55294,0.37724 0,0.0982 0.11369,0.19637 0.11886,0.093 0.894,0.40307 0.77514,0.30489 1.09554,0.70797 0.32039,0.40307 0.32039,0.88366 0,0.75964 -0.51676,1.17305 -0.51677,0.41341 -1.47278,0.41341 -0.98185,0 -1.74665,-0.35656 v -1.08004 q 0.9405,0.41341 1.57612,0.41341 0.74414,0 0.74414,-0.36173 0,-0.13953 -0.13953,-0.26355 -0.13435,-0.12402 -0.91983,-0.42891 -0.78548,-0.30489 -1.07487,-0.67179 -0.28939,-0.36691 -0.28939,-0.81649 0,-0.66662 0.55294,-1.0852 0.5581,-0.41858 1.4676,-0.41858 0.87333,0 1.57613,0.36174 z"
         style="font-weight:bold;-inkscape-font-specification:'Gill Sans MT Bold'"
         id="path249" /><path
         d="m 107.28513,142.75334 v 0.42374 q 0.61495,-0.52193 1.39526,-0.52193 0.95084,0 1.60713,0.7183 0.65629,0.7183 0.65629,1.76216 0,1.17305 -0.66146,1.88102 -0.65629,0.70796 -1.74149,0.70796 -0.67179,0 -1.25573,-0.33589 v 2.67683 h -1.53479 v -7.31219 z m 0,1.38492 v 2.24275 q 0.43408,0.32039 0.88883,0.32039 0.5581,0 0.88367,-0.3979 0.33072,-0.40308 0.33072,-1.08521 0,-0.69762 -0.30489,-1.0852 -0.29972,-0.38757 -0.84749,-0.38757 -0.45992,0 -0.95084,0.39274 z"
         style="font-weight:bold;-inkscape-font-specification:'Gill Sans MT Bold'"
         id="path251" /><path
         d="m 116.40392,146.42752 v 0.85266 q -0.76481,0.44441 -1.4366,0.44441 -0.72347,0 -0.85783,-0.54776 -0.80098,0.54776 -1.60713,0.54776 -0.56844,0 -0.96634,-0.35656 -0.39791,-0.36174 -0.39791,-0.83716 0,-0.63562 0.40824,-1.02319 0.41341,-0.39274 2.4908,-1.00769 0.0517,-0.81648 -0.84749,-0.81648 -0.97668,0 -1.79834,0.81648 v -1.25056 q 0.96118,-0.59428 2.11356,-0.59428 2.06705,0 2.06705,1.48311 v 2.22208 q 0,0.34106 0.25322,0.34106 0.1912,0 0.57877,-0.27388 z m -2.36677,0.0207 v -1.17822 q -0.76998,0.26872 -1.05937,0.48576 -0.28421,0.21187 -0.28421,0.5426 0,0.21187 0.14469,0.3669 0.14469,0.14986 0.3514,0.14986 0.43408,0 0.84749,-0.3669 z"
         style="font-weight:bold;-inkscape-font-specification:'Gill Sans MT Bold'"
         id="path253" /><path
         d="m 120.77366,146.29833 v 1.1007 q -0.89916,0.32556 -1.64847,0.32556 -1.28674,0 -2.05671,-0.68729 -0.76998,-0.69246 -0.76998,-1.82934 0,-1.11104 0.77514,-1.82934 0.78032,-0.72347 1.98437,-0.72347 0.77515,0 1.64331,0.32039 v 1.14205 q -0.63562,-0.32556 -1.25057,-0.32556 -0.68729,0 -1.1007,0.3824 -0.41341,0.38241 -0.41341,1.02319 0,0.64596 0.40307,1.04386 0.40308,0.39274 1.05937,0.39274 0.48575,0 1.37458,-0.33589 z"
         style="font-weight:bold;-inkscape-font-specification:'Gill Sans MT Bold'"
         id="path255" /><path
         d="m 126.03224,146.11746 v 0.96635 q -0.8785,0.64078 -2.17557,0.64078 -1.28674,0 -2.05672,-0.68729 -0.76997,-0.69246 -0.76997,-1.82934 0,-1.11621 0.72346,-1.83451 0.72347,-0.7183 1.84485,-0.7183 1.12654,0 1.84484,0.75964 0.72347,0.75448 0.67696,2.02571 h -3.50365 q 0.0465,0.66146 0.47025,1.01803 0.42375,0.35656 1.13688,0.35656 0.86299,0 1.80867,-0.69763 z m -3.3848,-1.48311 h 2.11873 q -0.12402,-1.06453 -1.05936,-1.06453 -0.94568,0 -1.05937,1.06453 z"
         style="font-weight:bold;-inkscape-font-specification:'Gill Sans MT Bold'"
         id="path257" /><path
         d="m 131.51095,142.65515 q 1.14722,0 1.94303,0.67179 0.80098,0.67179 0.80098,1.87068 0,1.20406 -0.81132,1.86552 -0.81131,0.66145 -1.93269,0.66145 -1.21439,0 -1.98953,-0.70279 -0.76998,-0.70797 -0.76998,-1.83451 0,-1.14721 0.78548,-1.83968 0.79065,-0.69246 1.97403,-0.69246 z m 0,4.15994 q 1.10071,0 1.10071,-1.65881 0,-1.58646 -1.10071,-1.58646 -0.5271,0 -0.82682,0.41858 -0.29455,0.41858 -0.29455,1.19889 0,1.6278 1.12137,1.6278 z"
         style="font-weight:bold;-inkscape-font-specification:'Gill Sans MT Bold'"
         id="path259" /><path
         d="m 139.6634,140.4124 v 7.21918 h -1.53478 v -0.39274 q -0.58911,0.48575 -1.35392,0.48575 -0.97668,0 -1.63297,-0.72346 -0.65112,-0.72347 -0.65112,-1.81384 0,-1.11621 0.66145,-1.82417 0.66663,-0.70797 1.70532,-0.70797 0.64595,0 1.27124,0.31006 v -2.55281 z m -1.53478,5.88593 v -2.3306 q -0.41858,-0.28422 -0.85783,-0.28422 -0.57877,0 -0.90433,0.40307 -0.3204,0.40308 -0.3204,1.13171 0,0.6718 0.3204,1.08004 0.32039,0.40307 0.85265,0.40307 0.47026,0 0.90951,-0.40307 z"
         style="font-weight:bold;-inkscape-font-specification:'Gill Sans MT Bold'"
         id="path261" /><path
         d="m 145.14418,142.75334 -3.26594,7.21917 h -1.63297 l 1.43143,-3.13675 -1.90685,-4.08242 h 1.63814 l 1.02835,2.5063 1.10071,-2.5063 z"
         style="font-weight:bold;-inkscape-font-specification:'Gill Sans MT Bold'"
         id="path263" /><path
         d="m 148.61476,143.01689 v 1.09037 q -0.8785,-0.53744 -1.6278,-0.53744 -0.55294,0 -0.55294,0.37724 0,0.0982 0.11369,0.19637 0.11885,0.093 0.894,0.40307 0.77514,0.30489 1.09553,0.70797 0.3204,0.40307 0.3204,0.88366 0,0.75964 -0.51677,1.17305 -0.51676,0.41341 -1.47277,0.41341 -0.98185,0 -1.74666,-0.35656 v -1.08004 q 0.94051,0.41341 1.57613,0.41341 0.74414,0 0.74414,-0.36173 0,-0.13953 -0.13953,-0.26355 -0.13436,-0.12402 -0.91984,-0.42891 -0.78548,-0.30489 -1.07486,-0.67179 -0.28939,-0.36691 -0.28939,-0.81649 0,-0.66662 0.55294,-1.0852 0.5581,-0.41858 1.4676,-0.41858 0.87333,0 1.57613,0.36174 z"
         style="font-weight:bold;-inkscape-font-specification:'Gill Sans MT Bold'"
         id="path265" /><path
         d="m 152.6021,143.01689 v 1.09037 q -0.8785,-0.53744 -1.6278,-0.53744 -0.55294,0 -0.55294,0.37724 0,0.0982 0.11369,0.19637 0.11885,0.093 0.894,0.40307 0.77514,0.30489 1.09553,0.70797 0.3204,0.40307 0.3204,0.88366 0,0.75964 -0.51677,1.17305 -0.51676,0.41341 -1.47277,0.41341 -0.98185,0 -1.74666,-0.35656 v -1.08004 q 0.94051,0.41341 1.57613,0.41341 0.74414,0 0.74414,-0.36173 0,-0.13953 -0.13953,-0.26355 -0.13436,-0.12402 -0.91984,-0.42891 -0.78548,-0.30489 -1.07486,-0.67179 -0.28939,-0.36691 -0.28939,-0.81649 0,-0.66662 0.55294,-1.0852 0.5581,-0.41858 1.4676,-0.41858 0.87333,0 1.57613,0.36174 z"
         style="font-weight:bold;-inkscape-font-specification:'Gill Sans MT Bold'"
         id="path267" /><path
         d="m 157.99503,146.11746 v 0.96635 q -0.8785,0.64078 -2.17557,0.64078 -1.28674,0 -2.05671,-0.68729 -0.76998,-0.69246 -0.76998,-1.82934 0,-1.11621 0.72347,-1.83451 0.72346,-0.7183 1.84484,-0.7183 1.12654,0 1.84484,0.75964 0.72347,0.75448 0.67696,2.02571 h -3.50365 q 0.0465,0.66146 0.47025,1.01803 0.42375,0.35656 1.13688,0.35656 0.863,0 1.80867,-0.69763 z m -3.38479,-1.48311 h 2.11872 q -0.12402,-1.06453 -1.05936,-1.06453 -0.94568,0 -1.05936,1.06453 z"
         style="font-weight:bold;-inkscape-font-specification:'Gill Sans MT Bold'"
         id="path269" /><path
         d="m 163.13475,142.75334 -3.26594,7.21917 h -1.63297 l 1.43143,-3.13675 -1.90685,-4.08242 h 1.63814 l 1.02835,2.5063 1.10071,-2.5063 z"
         style="font-weight:bold;-inkscape-font-specification:'Gill Sans MT Bold'"
         id="path271" /></g><g
       aria-label="2001"
       id="text9523"
       style="font-size:14.1111px;line-height:1.25;font-family:'Reem Kufi';-inkscape-font-specification:'Reem Kufi';letter-spacing:-1.05833px;fill:#fcfa1a;stroke-width:0.264583"><path
         d="m 65.116164,147.56017 q 0.874888,-0.889 1.693332,-1.72156 0.832554,-0.83255 1.481665,-1.60866 0.649111,-0.79023 1.03011,-1.53811 0.381,-0.74789 0.381,-1.43934 0,-0.57855 -0.239889,-0.94544 -0.239888,-0.381 -0.634999,-0.55033 -0.381,-0.18345 -0.818444,-0.18345 -0.592666,0 -0.959555,0.23989 -0.352777,0.23989 -0.52211,0.59267 -0.169334,0.33866 -0.169334,0.66322 0,0.91722 0.550333,1.46755 l -0.917221,0.83256 q -0.338667,-0.21167 -0.578555,-0.60678 -0.239889,-0.40922 -0.366889,-0.84666 -0.127,-0.45156 -0.127,-0.80434 0,-0.77611 0.381,-1.43933 0.381,-0.67733 1.128888,-1.10067 0.747888,-0.42333 1.820332,-0.42333 0.888999,0 1.552221,0.42333 0.677333,0.40923 1.044221,1.08656 0.381,0.67733 0.381,1.48166 0,0.889 -0.437444,1.72156 -0.423333,0.83255 -1.086555,1.651 -0.663222,0.81844 -1.368777,1.62277 h 3.174998 v 1.42523 z"
         id="path274" /><path
         d="m 75.473722,147.6025 q -1.142999,0.0141 -2.031998,-0.55033 -0.874889,-0.57856 -1.382888,-1.63689 -0.493889,-1.05833 -0.493889,-2.54 0,-1.60867 0.479778,-2.65289 0.493888,-1.04422 1.368776,-1.55222 0.889,-0.508 2.060221,-0.508 1.142999,0 2.017887,0.56445 0.889,0.55033 1.382888,1.60866 0.508,1.05833 0.508,2.54 0,1.524 -0.508,2.58233 -0.493888,1.05833 -1.382888,1.60867 -0.888999,0.55033 -2.017887,0.53622 z m -0.01411,-1.42522 q 0.804333,0 1.326443,-0.42334 0.536222,-0.42333 0.790222,-1.17122 0.268111,-0.74789 0.268111,-1.73566 0,-1.45345 -0.592666,-2.35656 -0.592667,-0.90311 -1.79211,-0.90311 -0.790222,0 -1.312332,0.42334 -0.522111,0.40922 -0.790222,1.15711 -0.254,0.74789 -0.254,1.70744 0,0.95955 0.254,1.70744 0.268111,0.74789 0.790222,1.17122 0.52211,0.42334 1.312332,0.42334 z"
         id="path276" /><path
         d="m 83.220726,147.6025 q -1.142999,0.0141 -2.031998,-0.55033 -0.874889,-0.57856 -1.382888,-1.63689 -0.493889,-1.05833 -0.493889,-2.54 0,-1.60867 0.479778,-2.65289 0.493888,-1.04422 1.368776,-1.55222 0.889,-0.508 2.060221,-0.508 1.142999,0 2.017887,0.56445 0.889,0.55033 1.382888,1.60866 0.508,1.05833 0.508,2.54 0,1.524 -0.508,2.58233 -0.493888,1.05833 -1.382888,1.60867 -0.888999,0.55033 -2.017887,0.53622 z m -0.01411,-1.42522 q 0.804333,0 1.326443,-0.42334 0.536222,-0.42333 0.790222,-1.17122 0.268111,-0.74789 0.268111,-1.73566 0,-1.45345 -0.592666,-2.35656 -0.592667,-0.90311 -1.79211,-0.90311 -0.790222,0 -1.312332,0.42334 -0.522111,0.40922 -0.790222,1.15711 -0.254,0.74789 -0.254,1.70744 0,0.95955 0.254,1.70744 0.268111,0.74789 0.790222,1.17122 0.52211,0.42334 1.312332,0.42334 z"
         id="path278" /><path
         d="m 87.312956,138.26095 h 2.483553 v 9.29922 h -1.481665 v -7.874 h -1.001888 z"
         id="path280" /></g><g
       aria-label="MGM"
       transform="scale(0.92936681,1.0760014)"
       id="text9665"
       style="font-size:9.83577px;line-height:1.25;font-family:Arial;-inkscape-font-specification:Arial;fill:#ffffff;stroke-width:0.245895"><path
         d="m 98.381062,131.23651 v -1.40813 h 0.280474 l 0.333303,0.99703 q 0.0461,0.13927 0.06724,0.20843 0.02401,-0.0768 0.07492,-0.22572 l 0.337145,-0.97974 h 0.250698 v 1.40813 h -0.179619 v -1.17857 l -0.409185,1.17857 h -0.168092 l -0.407264,-1.19874 v 1.19874 z"
         style="font-size:1.96716px"
         id="path283" /><path
         d="M 100.68441,130.68421 V 130.519 l 0.59648,-9.6e-4 v 0.52252 q -0.13735,0.1095 -0.28335,0.16521 -0.146,0.0548 -0.29969,0.0548 -0.20747,0 -0.37748,-0.0884 -0.16906,-0.0893 -0.2555,-0.25743 -0.08645,-0.16809 -0.08645,-0.37556 0,-0.20555 0.08549,-0.38325 0.0864,-0.17866 0.24781,-0.26511 0.16137,-0.0864 0.37173,-0.0864 0.15272,0 0.27567,0.0499 0.12391,0.049 0.19402,0.13736 0.0701,0.0884 0.10662,0.23052 l -0.16809,0.0461 q -0.0317,-0.10758 -0.0788,-0.16905 -0.0471,-0.0615 -0.13448,-0.098 -0.0874,-0.0375 -0.19402,-0.0375 -0.12775,0 -0.22092,0.0394 -0.0932,0.0384 -0.15081,0.10182 -0.0567,0.0634 -0.0884,0.13928 -0.0538,0.13063 -0.0538,0.28335 0,0.18827 0.0644,0.31506 0.0653,0.12678 0.18922,0.18826 0.12391,0.0615 0.26319,0.0615 0.12102,0 0.23629,-0.0461 0.11526,-0.0471 0.17481,-0.0999 v -0.26222 z"
         style="font-size:1.96716px"
         id="path285" /><path
         d="m 101.54984,131.23651 v -1.40813 h 0.28048 l 0.3333,0.99703 q 0.0461,0.13927 0.0672,0.20843 0.024,-0.0768 0.0749,-0.22572 l 0.33714,-0.97974 h 0.2507 v 1.40813 H 102.714 v -1.17857 l -0.40918,1.17857 h -0.1681 l -0.40726,-1.19874 v 1.19874 z"
         style="font-size:1.96716px"
         id="path287" /></g><g
       aria-label="STANLEY KUBRICK PRODUCTION"
       transform="scale(0.96976091,1.031182)"
       id="text9669"
       style="font-size:2.05266px;line-height:1.25;letter-spacing:-0.0661458px;fill:#ffffff;stroke-width:0.256582"><path
         d="m 112.57429,136.95563 q -0.10624,0 -0.20045,-0.02 -0.0932,-0.02 -0.1754,-0.0601 -0.0812,-0.0401 -0.15235,-0.10023 v 0 l 0.12729,-0.15635 v 0 q 0.0832,0.0722 0.18342,0.10824 0.10022,0.0361 0.21749,0.0361 0.15836,0 0.24556,-0.0591 0.0872,-0.0591 0.0872,-0.16537 v -0.001 q 0,-0.0832 -0.0441,-0.12729 -0.0441,-0.0441 -0.11627,-0.0651 -0.0712,-0.022 -0.15635,-0.0361 -0.0822,-0.014 -0.16638,-0.0331 -0.0832,-0.019 -0.15335,-0.0591 -0.0702,-0.0411 -0.11326,-0.11726 -0.0421,-0.0762 -0.0421,-0.20346 v -0.001 q 0,-0.20346 0.13531,-0.31471 0.1353,-0.11226 0.38186,-0.11226 0.11727,0 0.22952,0.0381 0.11226,0.0371 0.2185,0.11426 v 0 l -0.11626,0.16237 v 0 q -0.0832,-0.0621 -0.16638,-0.0922 -0.0822,-0.0301 -0.16538,-0.0301 -0.14934,0 -0.23253,0.0601 -0.0822,0.0591 -0.0822,0.16838 v 0.001 q 0,0.0822 0.0481,0.12529 0.0481,0.0431 0.12528,0.0641 0.0782,0.02 0.16738,0.0381 0.0802,0.016 0.16037,0.0391 0.0802,0.022 0.14533,0.0651 0.0662,0.0421 0.10523,0.11626 0.0401,0.0742 0.0401,0.19344 v 0.002 q 0,0.20146 -0.14032,0.31171 -0.14032,0.11025 -0.3949,0.11025 z"
         style="font-family:Bahnschrift;-inkscape-font-specification:Bahnschrift"
         id="path290" /><path
         d="m 113.5455,136.9406 v -1.33804 h 0.20446 v 1.33804 z m -0.41194,-1.26287 v -0.19444 h 1.02834 v 0.19444 z"
         style="font-family:Bahnschrift;-inkscape-font-specification:Bahnschrift"
         id="path292" /><path
         d="m 114.06569,136.9406 0.53721,-1.45731 h 0.1744 l 0.53722,1.45731 h -0.2205 l -0.40392,-1.17567 -0.40391,1.17567 z m 0.24756,-0.31973 v -0.19444 h 0.76674 v 0.19444 z"
         style="font-family:Bahnschrift;-inkscape-font-specification:Bahnschrift"
         id="path294" /><path
         d="m 115.46888,136.9396 v -1.45631 h 0.18542 l 0.71261,1.12656 -0.0241,0.0261 v -1.15262 h 0.20246 v 1.45631 h -0.18743 l -0.71061,-1.10952 0.0241,-0.0261 v 1.13558 z"
         style="font-family:Bahnschrift;-inkscape-font-specification:Bahnschrift"
         id="path296" /><path
         d="m 116.83999,136.9406 v -1.45731 h 0.20447 v 1.45731 z m 0.10223,0 v -0.19444 h 0.8339 v 0.19444 z"
         style="font-family:Bahnschrift;-inkscape-font-specification:Bahnschrift"
         id="path298" /><path
         d="m 117.95052,136.9406 v -1.45731 h 0.20446 v 1.45731 z m 0.0992,0 v -0.19444 h 0.8369 v 0.19444 z m 0,-0.62642 v -0.19445 h 0.72665 v 0.19445 z m 0,-0.63645 v -0.19444 h 0.8369 v 0.19444 z"
         style="font-family:Bahnschrift;-inkscape-font-specification:Bahnschrift"
         id="path300" /><path
         d="m 119.99316,135.48329 -0.44401,0.86496 v 0.59235 h -0.20446 v -0.59235 l -0.44401,-0.86496 h 0.22752 l 0.31872,0.65749 0.31872,-0.65749 z"
         style="font-family:Bahnschrift;-inkscape-font-specification:Bahnschrift"
         id="path302" /><path
         d="m 120.69276,136.60784 0.0301,-0.30669 0.64346,-0.81786 h 0.25157 z m -0.1303,0.33276 v -1.45731 h 0.20447 v 1.45731 z m 0.86597,0 -0.46305,-0.77777 0.16136,-0.14934 0.55226,0.92711 z"
         style="font-family:Bahnschrift;-inkscape-font-specification:Bahnschrift"
         id="path304" /><path
         d="m 122.24428,136.95563 q -0.24355,0 -0.37785,-0.14132 -0.13331,-0.14232 -0.13331,-0.40091 v -0.93011 h 0.20447 v 0.93713 q 0,0.15936 0.0802,0.24656 0.0802,0.0872 0.22651,0.0872 0.14734,0 0.22752,-0.0872 0.0812,-0.0872 0.0812,-0.24656 v -0.93713 h 0.20447 v 0.93011 q 0,0.25859 -0.13431,0.40091 -0.1343,0.14132 -0.37886,0.14132 z"
         style="font-family:Bahnschrift;-inkscape-font-specification:Bahnschrift"
         id="path306" /><path
         d="m 123.1323,136.9406 v -0.18943 h 0.3949 q 0.16237,0 0.22952,-0.0621 0.0682,-0.0621 0.0682,-0.16337 v -0.003 q 0,-0.10825 -0.0581,-0.17239 -0.0571,-0.0651 -0.18943,-0.0651 h -0.44501 v -0.18442 h 0.44501 q 0.11326,0 0.17039,-0.0531 0.0581,-0.0541 0.0581,-0.15736 v 0 q 0,-0.10925 -0.0641,-0.16337 -0.0642,-0.0541 -0.19244,-0.0541 h -0.41695 v -0.18943 h 0.45403 q 0.21549,0 0.32073,0.10724 0.10524,0.10725 0.10524,0.28766 v 0 q 0,0.10924 -0.0641,0.20045 -0.0641,0.0902 -0.20146,0.11526 0.13531,0.02 0.20947,0.11927 0.0752,0.0992 0.0752,0.22752 v 0.003 q 0,0.1784 -0.11526,0.28765 -0.11526,0.10925 -0.31271,0.10925 z m -0.12027,0 v -1.45731 h 0.20346 v 1.45731 z"
         style="font-family:Bahnschrift;-inkscape-font-specification:Bahnschrift"
         id="path308" /><path
         d="m 124.36009,136.3242 v -0.19444 h 0.49713 q 0.0892,0 0.14333,-0.0621 0.0541,-0.0622 0.0541,-0.16438 v 0 q 0,-0.10223 -0.0541,-0.16437 -0.0541,-0.0621 -0.14333,-0.0621 h -0.49713 v -0.19444 h 0.48912 q 0.12728,0 0.2225,0.0531 0.0952,0.0521 0.14733,0.14633 0.0531,0.0942 0.0531,0.2215 v 0 q 0,0.12629 -0.0531,0.22151 -0.0531,0.0942 -0.14833,0.14733 -0.0942,0.0521 -0.2215,0.0521 z m -0.0892,0.6164 v -1.45831 h 0.20447 v 1.45831 z m 0.81986,0 -0.33375,-0.6615 0.20346,-0.0461 0.37284,0.70761 z"
         style="font-family:Bahnschrift;-inkscape-font-specification:Bahnschrift"
         id="path310" /><path
         d="m 125.74725,135.48329 v 1.45731 h -0.20447 v -1.45731 z"
         style="font-family:Bahnschrift;-inkscape-font-specification:Bahnschrift"
         id="path312" /><path
         d="m 126.519,136.95563 q -0.15234,0 -0.2666,-0.0672 -0.11426,-0.0682 -0.1774,-0.19043 -0.0632,-0.12228 -0.0632,-0.28565 v -0.39991 q 0,-0.16437 0.0632,-0.28665 0.0631,-0.12228 0.1774,-0.18943 0.11426,-0.0682 0.2666,-0.0682 0.12629,0 0.23053,0.0541 0.10524,0.0541 0.1754,0.15134 0.0712,0.0972 0.0962,0.22752 v 0 h -0.20947 v 0 q -0.019,-0.0702 -0.0642,-0.12228 -0.0441,-0.0531 -0.10423,-0.0822 -0.0601,-0.0291 -0.12429,-0.0291 -0.1343,0 -0.21649,0.0952 -0.0812,0.0942 -0.0812,0.24957 v 0.39991 q 0,0.15535 0.0812,0.24956 0.0822,0.0942 0.21649,0.0942 0.0952,0 0.17941,-0.0601 0.0842,-0.0601 0.11326,-0.17339 v 0 h 0.20947 v 0 q -0.0251,0.13029 -0.0962,0.22752 -0.0712,0.0972 -0.1754,0.15134 -0.10424,0.0541 -0.23053,0.0541 z"
         style="font-family:Bahnschrift;-inkscape-font-specification:Bahnschrift"
         id="path314" /><path
         d="m 127.35591,136.60784 0.0301,-0.30669 0.64346,-0.81786 h 0.25157 z m -0.1303,0.33276 v -1.45731 h 0.20447 v 1.45731 z m 0.86597,0 -0.46305,-0.77777 0.16136,-0.14934 0.55226,0.92711 z"
         style="font-family:Bahnschrift;-inkscape-font-specification:Bahnschrift"
         id="path316" /><path
         d="m 129.0668,136.37531 v -0.19444 h 0.46606 q 0.10023,0 0.16037,-0.0692 0.0611,-0.0692 0.0611,-0.18142 v 0 q 0,-0.11426 -0.0611,-0.18341 -0.0601,-0.0692 -0.16037,-0.0692 h -0.46606 v -0.19444 h 0.45905 q 0.1323,0 0.23052,0.0561 0.0982,0.0551 0.15234,0.15535 0.0551,0.10023 0.0551,0.23553 v 0 q 0,0.13431 -0.0551,0.23454 -0.0541,0.10022 -0.15234,0.15535 -0.0982,0.0551 -0.23052,0.0551 z m -0.10524,0.56529 v -1.45731 h 0.20447 v 1.45731 z"
         style="font-family:Bahnschrift;-inkscape-font-specification:Bahnschrift"
         id="path318" /><path
         d="m 130.24248,136.3242 v -0.19444 h 0.49712 q 0.0892,0 0.14333,-0.0621 0.0541,-0.0622 0.0541,-0.16438 v 0 q 0,-0.10223 -0.0541,-0.16437 -0.0541,-0.0621 -0.14333,-0.0621 h -0.49712 v -0.19444 h 0.48911 q 0.12729,0 0.2225,0.0531 0.0952,0.0521 0.14734,0.14633 0.0531,0.0942 0.0531,0.2215 v 0 q 0,0.12629 -0.0531,0.22151 -0.0531,0.0942 -0.14834,0.14733 -0.0942,0.0521 -0.2215,0.0521 z m -0.0892,0.6164 v -1.45831 h 0.20447 v 1.45831 z m 0.81986,0 -0.33375,-0.6615 0.20346,-0.0461 0.37285,0.70761 z"
         style="font-family:Bahnschrift;-inkscape-font-specification:Bahnschrift"
         id="path320" /><path
         d="m 131.86717,136.95563 q -0.15435,0 -0.26961,-0.0662 -0.11527,-0.0671 -0.17941,-0.18843 -0.0631,-0.12127 -0.0631,-0.28264 v -0.41294 q 0,-0.16236 0.0631,-0.28264 0.0641,-0.12127 0.17941,-0.18742 0.11526,-0.0672 0.26961,-0.0672 0.15435,0 0.26961,0.0672 0.11526,0.0661 0.17841,0.18742 0.0641,0.12028 0.0641,0.28264 v 0.41294 q 0,0.16137 -0.0641,0.28264 -0.0632,0.12128 -0.17841,0.18843 -0.11526,0.0662 -0.26961,0.0662 z m 0,-0.20146 q 0.13731,0 0.2195,-0.0902 0.0832,-0.0902 0.0832,-0.23854 v -0.42697 q 0,-0.14934 -0.0832,-0.23854 -0.0822,-0.0902 -0.2195,-0.0902 -0.13631,0 -0.2195,0.0902 -0.0832,0.0892 -0.0832,0.23854 v 0.42697 q 0,0.14833 0.0832,0.23854 0.0832,0.0902 0.2195,0.0902 z"
         style="font-family:Bahnschrift;-inkscape-font-specification:Bahnschrift"
         id="path322" /><path
         d="m 132.76221,136.9406 v -0.19444 h 0.32974 q 0.16137,0 0.24957,-0.0832 0.0892,-0.0842 0.0892,-0.23654 v -0.42897 q 0,-0.15235 -0.0892,-0.23554 -0.0882,-0.0842 -0.24957,-0.0842 h -0.32974 v -0.19444 h 0.32373 q 0.2646,0 0.40893,0.13731 0.14533,0.13631 0.14533,0.38487 v 0.41294 q 0,0.16538 -0.0651,0.28264 -0.0652,0.11627 -0.18943,0.17841 -0.12428,0.0611 -0.30068,0.0611 z m -0.13832,0 v -1.45731 h 0.20447 v 1.45731 z"
         style="font-family:Bahnschrift;-inkscape-font-specification:Bahnschrift"
         id="path324" /><path
         d="m 134.35583,136.95563 q -0.24356,0 -0.37786,-0.14132 -0.1333,-0.14232 -0.1333,-0.40091 v -0.93011 h 0.20446 v 0.93713 q 0,0.15936 0.0802,0.24656 0.0802,0.0872 0.22652,0.0872 0.14733,0 0.22751,-0.0872 0.0812,-0.0872 0.0812,-0.24656 v -0.93713 h 0.20446 v 0.93011 q 0,0.25859 -0.1343,0.40091 -0.13431,0.14132 -0.37886,0.14132 z"
         style="font-family:Bahnschrift;-inkscape-font-specification:Bahnschrift"
         id="path326" /><path
         d="m 135.58061,136.95563 q -0.15234,0 -0.2666,-0.0672 -0.11426,-0.0682 -0.17741,-0.19043 -0.0631,-0.12228 -0.0631,-0.28565 v -0.39991 q 0,-0.16437 0.0631,-0.28665 0.0632,-0.12228 0.17741,-0.18943 0.11426,-0.0682 0.2666,-0.0682 0.12629,0 0.23052,0.0541 0.10524,0.0541 0.1754,0.15134 0.0712,0.0972 0.0962,0.22752 v 0 h -0.20947 v 0 q -0.019,-0.0702 -0.0641,-0.12228 -0.0441,-0.0531 -0.10424,-0.0822 -0.0601,-0.0291 -0.12428,-0.0291 -0.1343,0 -0.21649,0.0952 -0.0812,0.0942 -0.0812,0.24957 v 0.39991 q 0,0.15535 0.0812,0.24956 0.0822,0.0942 0.21649,0.0942 0.0952,0 0.17941,-0.0601 0.0842,-0.0601 0.11326,-0.17339 v 0 h 0.20947 v 0 q -0.0251,0.13029 -0.0962,0.22752 -0.0712,0.0972 -0.1754,0.15134 -0.10423,0.0541 -0.23052,0.0541 z"
         style="font-family:Bahnschrift;-inkscape-font-specification:Bahnschrift"
         id="path328" /><path
         d="m 136.51875,136.9406 v -1.33804 h 0.20446 v 1.33804 z m -0.41194,-1.26287 v -0.19444 h 1.02833 v 0.19444 z"
         style="font-family:Bahnschrift;-inkscape-font-specification:Bahnschrift"
         id="path330" /><path
         d="m 137.47392,135.48329 v 1.45731 h -0.20447 v -1.45731 z"
         style="font-family:Bahnschrift;-inkscape-font-specification:Bahnschrift"
         id="path332" /><path
         d="m 138.25069,136.95563 q -0.15435,0 -0.26962,-0.0662 -0.11526,-0.0671 -0.1794,-0.18843 -0.0632,-0.12127 -0.0632,-0.28264 v -0.41294 q 0,-0.16236 0.0632,-0.28264 0.0641,-0.12127 0.1794,-0.18742 0.11527,-0.0672 0.26962,-0.0672 0.15435,0 0.26961,0.0672 0.11526,0.0661 0.1784,0.18742 0.0641,0.12028 0.0641,0.28264 v 0.41294 q 0,0.16137 -0.0641,0.28264 -0.0631,0.12128 -0.1784,0.18843 -0.11526,0.0662 -0.26961,0.0662 z m 0,-0.20146 q 0.13731,0 0.21949,-0.0902 0.0832,-0.0902 0.0832,-0.23854 v -0.42697 q 0,-0.14934 -0.0832,-0.23854 -0.0822,-0.0902 -0.21949,-0.0902 -0.13631,0 -0.2195,0.0902 -0.0832,0.0892 -0.0832,0.23854 v 0.42697 q 0,0.14833 0.0832,0.23854 0.0832,0.0902 0.2195,0.0902 z"
         style="font-family:Bahnschrift;-inkscape-font-specification:Bahnschrift"
         id="path334" /><path
         d="m 139.00741,136.9396 v -1.45631 h 0.18542 l 0.71262,1.12656 -0.0241,0.0261 v -1.15262 h 0.20246 v 1.45631 h -0.18742 l -0.71062,-1.10952 0.0241,-0.0261 v 1.13558 z"
         style="font-family:Bahnschrift;-inkscape-font-specification:Bahnschrift"
         id="path336" /></g><g
       aria-label="PRESENTS A"
       id="text9791"
       style="font-size:1.5875px;line-height:1.25;fill:#ffffff;stroke-width:0.264583"><path
         d="m 97.390593,141.20895 v -1.13636 h 0.428656 q 0.113171,0 0.172858,0.0109 0.08371,0.0139 0.140301,0.0535 0.05659,0.0387 0.09069,0.10929 0.03488,0.0705 0.03488,0.15503 0,0.14495 -0.09224,0.24572 -0.09224,0.1 -0.333313,0.1 h -0.291455 v 0.46198 z m 0.150378,-0.59608 h 0.293781 q 0.145727,0 0.206964,-0.0543 0.06124,-0.0543 0.06124,-0.15271 0,-0.0713 -0.03643,-0.1217 -0.03566,-0.0512 -0.09457,-0.0674 -0.03798,-0.0101 -0.140302,-0.0101 h -0.29068 z"
         style="font-family:Arial;-inkscape-font-specification:Arial"
         id="path339" /><path
         d="m 98.451768,141.20895 v -1.13636 h 0.503846 q 0.151928,0 0.230993,0.031 0.07906,0.0302 0.126349,0.10775 0.04728,0.0775 0.04728,0.17131 0,0.12092 -0.07829,0.20386 -0.07829,0.0829 -0.241845,0.10542 0.05969,0.0287 0.09069,0.0566 0.06589,0.0605 0.124798,0.15115 l 0.197663,0.30928 h -0.189136 l -0.150378,-0.23642 q -0.06589,-0.10232 -0.108521,-0.15658 -0.04263,-0.0543 -0.07674,-0.076 -0.03333,-0.0217 -0.06821,-0.0302 -0.02558,-0.005 -0.08372,-0.005 h -0.174408 v 0.50462 z m 0.150379,-0.63484 h 0.323236 q 0.103094,0 0.16123,-0.0209 0.05814,-0.0217 0.08837,-0.0682 0.03023,-0.0473 0.03023,-0.10232 0,-0.0806 -0.05891,-0.13255 -0.05814,-0.0519 -0.184485,-0.0519 h -0.359668 z"
         style="font-family:Arial;-inkscape-font-specification:Arial"
         id="path341" /><path
         d="m 99.598985,141.20895 v -1.13636 h 0.821655 v 0.1341 h -0.671276 v 0.34804 h 0.628646 v 0.13333 h -0.628646 v 0.38679 H 100.447 v 0.1341 z"
         style="font-family:Arial;-inkscape-font-specification:Arial"
         id="path343" /><path
         d="m 100.60357,140.84386 0.14186,-0.0124 q 0.0101,0.0853 0.0465,0.1403 0.0372,0.0543 0.11472,0.0884 0.0775,0.0333 0.17441,0.0333 0.086,0 0.15192,-0.0256 0.0659,-0.0256 0.0977,-0.0698 0.0326,-0.045 0.0326,-0.0977 0,-0.0535 -0.031,-0.093 -0.031,-0.0403 -0.10232,-0.0674 -0.0457,-0.0178 -0.20231,-0.055 -0.15658,-0.038 -0.21937,-0.0713 -0.0814,-0.0426 -0.12169,-0.10542 -0.0395,-0.0636 -0.0395,-0.14185 0,-0.086 0.0488,-0.16046 0.0488,-0.0752 0.14262,-0.11394 0.0938,-0.0388 0.20852,-0.0388 0.12635,0 0.22247,0.0411 0.0969,0.0403 0.14882,0.11938 0.0519,0.0791 0.0558,0.17905 l -0.14417,0.0109 q -0.0116,-0.10775 -0.0791,-0.16278 -0.0667,-0.055 -0.19766,-0.055 -0.13643,0 -0.19921,0.0504 -0.062,0.0496 -0.062,0.12014 0,0.0612 0.0442,0.10077 0.0434,0.0395 0.22634,0.0814 0.18371,0.0411 0.25192,0.0721 0.0992,0.0457 0.14651,0.11627 0.0473,0.0698 0.0473,0.16123 0,0.0907 -0.0519,0.17131 -0.0519,0.0798 -0.14961,0.1248 -0.0969,0.0442 -0.21859,0.0442 -0.15425,0 -0.2589,-0.045 -0.10387,-0.045 -0.16355,-0.13487 -0.0589,-0.0907 -0.062,-0.20464 z"
         style="font-family:Arial;-inkscape-font-specification:Arial"
         id="path345" /><path
         d="m 101.71669,141.20895 v -1.13636 h 0.82165 v 0.1341 h -0.67128 v 0.34804 h 0.62865 v 0.13333 h -0.62865 v 0.38679 h 0.69764 v 0.1341 z"
         style="font-family:Arial;-inkscape-font-specification:Arial"
         id="path347" /><path
         d="m 102.77088,141.20895 v -1.13636 h 0.15426 l 0.59686,0.89219 v -0.89219 h 0.14418 v 1.13636 h -0.15426 l -0.59686,-0.89296 v 0.89296 z"
         style="font-family:Arial;-inkscape-font-specification:Arial"
         id="path349" /><path
         d="m 104.20801,141.20895 v -1.00226 h -0.3744 v -0.1341 h 0.90072 v 0.1341 h -0.37595 v 1.00226 z"
         style="font-family:Arial;-inkscape-font-specification:Arial"
         id="path351" /><path
         d="m 104.83742,140.84386 0.14186,-0.0124 q 0.0101,0.0853 0.0465,0.1403 0.0372,0.0543 0.11472,0.0884 0.0775,0.0333 0.17441,0.0333 0.086,0 0.15192,-0.0256 0.0659,-0.0256 0.0977,-0.0698 0.0326,-0.045 0.0326,-0.0977 0,-0.0535 -0.031,-0.093 -0.031,-0.0403 -0.10232,-0.0674 -0.0457,-0.0178 -0.20231,-0.055 -0.15658,-0.038 -0.21937,-0.0713 -0.0814,-0.0426 -0.12169,-0.10542 -0.0395,-0.0636 -0.0395,-0.14185 0,-0.086 0.0488,-0.16046 0.0488,-0.0752 0.14262,-0.11394 0.0938,-0.0388 0.20852,-0.0388 0.12635,0 0.22247,0.0411 0.0969,0.0403 0.14882,0.11938 0.0519,0.0791 0.0558,0.17905 l -0.14417,0.0109 q -0.0116,-0.10775 -0.0791,-0.16278 -0.0667,-0.055 -0.19766,-0.055 -0.13643,0 -0.19921,0.0504 -0.062,0.0496 -0.062,0.12014 0,0.0612 0.0442,0.10077 0.0434,0.0395 0.22634,0.0814 0.18371,0.0411 0.25192,0.0721 0.0992,0.0457 0.14651,0.11627 0.0473,0.0698 0.0473,0.16123 0,0.0907 -0.0519,0.17131 -0.0519,0.0798 -0.14961,0.1248 -0.0969,0.0442 -0.21859,0.0442 -0.15425,0 -0.2589,-0.045 -0.10387,-0.045 -0.16355,-0.13487 -0.0589,-0.0907 -0.062,-0.20464 z"
         style="font-family:Arial;-inkscape-font-specification:Arial"
         id="path353" /><path
         d="m 107.1029,141.20895 -0.13653,-0.35083 h -0.44926 l -0.13494,0.35083 h -0.14446 l 0.44291,-1.13823 h 0.12859 l 0.44133,1.13823 z m -0.17939,-0.47783 -0.127,-0.3429 q -0.005,-0.0127 -0.0159,-0.046 -0.0111,-0.0333 -0.0222,-0.0683 -0.01,-0.0365 -0.0159,-0.0556 -0.0127,0.0492 -0.027,0.0968 -0.0127,0.046 -0.0222,0.073 l -0.12858,0.3429 z"
         id="path355" /></g></g></svg>
